<svg width="1963" height="539" viewBox="0 0 1963 539" fill="none" xmlns="http://www.w3.org/2000/svg">
<path d="M809.8 414.2C780.733 414.2 756.067 408.067 735.8 395.8C715.8 383.267 700.6 366.067 690.2 344.2C679.8 322.333 674.6 297.533 674.6 269.8C674.6 241.8 679.8 216.867 690.2 195C700.6 173.133 715.933 156.067 736.2 143.8C756.467 131.267 781.133 125 810.2 125C839.533 125 864.2 131.133 884.2 143.4C904.2 155.667 919.4 172.733 929.8 194.6C940.2 216.467 945.4 241.4 945.4 269.4C945.4 297.133 940.2 321.933 929.8 343.8C919.4 365.667 904.067 382.867 883.8 395.4C863.8 407.933 839.133 414.2 809.8 414.2ZM810.2 375.4C831.533 375.4 849 370.467 862.6 360.6C876.2 350.733 886.2 337.8 892.6 321.8C899 305.8 902.2 288.467 902.2 269.8C902.2 255.667 900.333 242.2 896.6 229.4C893.133 216.6 887.667 205.267 880.2 195.4C872.733 185.533 863.133 177.8 851.4 172.2C839.667 166.6 825.933 163.8 810.2 163.8C789.133 163.8 771.667 168.733 757.8 178.6C744.2 188.467 734.067 201.4 727.4 217.4C720.733 233.4 717.4 250.867 717.4 269.8C717.4 288.467 720.6 305.8 727 321.8C733.667 337.8 743.8 350.733 757.4 360.6C771.267 370.467 788.867 375.4 810.2 375.4ZM980.059 411V200.2H1019.26L1021.26 229.8C1026.59 222.067 1032.99 215.933 1040.46 211.4C1047.93 206.6 1055.93 203.133 1064.46 201C1072.99 198.6 1081.26 197.4 1089.26 197.4C1109.53 197.4 1125.39 201.8 1136.86 210.6C1148.59 219.133 1156.86 230.733 1161.66 245.4C1166.73 259.8 1169.26 276.2 1169.26 294.6V411H1127.66V303C1127.66 294.467 1127.13 286.067 1126.06 277.8C1124.99 269.533 1122.73 262.2 1119.26 255.8C1116.06 249.133 1111.39 243.933 1105.26 240.2C1099.13 236.2 1090.86 234.2 1080.46 234.2C1067.66 234.2 1056.86 237.667 1048.06 244.6C1039.26 251.533 1032.59 260.867 1028.06 272.6C1023.53 284.333 1021.26 297.533 1021.26 312.2V411H980.059ZM1291.94 413.4C1269.27 413.4 1253.01 407.267 1243.14 395C1233.54 382.467 1228.74 365 1228.74 342.6V237H1195.14V200.2H1228.74V139H1269.94V200.2H1334.34V237H1269.94V335.8C1269.94 343.267 1270.61 350.067 1271.94 356.2C1273.54 362.333 1276.47 367.133 1280.74 370.6C1285.01 374.067 1291.14 375.933 1299.14 376.2C1305.27 376.2 1310.61 375.133 1315.14 373C1319.94 370.867 1323.81 368.467 1326.74 365.8L1342.74 396.6C1337.67 400.6 1332.34 403.933 1326.74 406.6C1321.41 409 1315.81 410.733 1309.94 411.8C1304.07 412.867 1298.07 413.4 1291.94 413.4ZM1458.45 413.4C1436.58 413.4 1418.05 409 1402.85 400.2C1387.65 391.133 1376.05 378.467 1368.05 362.2C1360.32 345.933 1356.45 327.133 1356.45 305.8C1356.45 284.2 1360.45 265.4 1368.45 249.4C1376.45 233.133 1388.05 220.467 1403.25 211.4C1418.45 202.067 1436.98 197.4 1458.85 197.4C1480.72 197.4 1499.25 202.067 1514.45 211.4C1529.65 220.467 1541.12 233.133 1548.85 249.4C1556.58 265.667 1560.45 284.6 1560.45 306.2C1560.45 327.267 1556.45 345.933 1548.45 362.2C1540.72 378.467 1529.25 391.133 1514.05 400.2C1499.12 409 1480.58 413.4 1458.45 413.4ZM1458.45 376.6C1472.85 376.6 1484.45 373.4 1493.25 367C1502.32 360.6 1508.98 352.067 1513.25 341.4C1517.52 330.467 1519.65 318.6 1519.65 305.8C1519.65 293 1517.52 281.267 1513.25 270.6C1508.98 259.933 1502.32 251.4 1493.25 245C1484.45 238.333 1472.85 235 1458.45 235C1444.32 235 1432.72 238.333 1423.65 245C1414.58 251.4 1407.92 259.933 1403.65 270.6C1399.65 281.267 1397.65 293 1397.65 305.8C1397.65 318.867 1399.65 330.733 1403.65 341.4C1407.92 352.067 1414.58 360.6 1423.65 367C1432.72 373.4 1444.32 376.6 1458.45 376.6ZM1715.53 414.2C1688.86 414.2 1667 408.867 1649.93 398.2C1633.13 387.267 1620.73 372.333 1612.73 353.4C1604.73 334.467 1600.73 312.467 1600.73 287.4V128.2H1643.13V287.8C1643.13 303.533 1645.4 318.067 1649.93 331.4C1654.46 344.733 1662.06 355.4 1672.73 363.4C1683.4 371.4 1697.8 375.4 1715.93 375.4C1734.33 375.4 1748.73 371.4 1759.13 363.4C1769.53 355.4 1776.86 344.733 1781.13 331.4C1785.4 318.067 1787.53 303.533 1787.53 287.8V128.2H1830.33V287.4C1830.33 312.2 1826.33 334.2 1818.33 353.4C1810.33 372.333 1797.93 387.267 1781.13 398.2C1764.33 408.867 1742.46 414.2 1715.53 414.2ZM1886.92 411V128.2H1929.32V411H1886.92Z" fill="#6B9FFF"/>
<path d="M258.929 62.1429L455.714 145" stroke="#6B9FFF" stroke-opacity="0.6" stroke-width="40"/>
<path d="M258.929 62.1429L62.1429 145" stroke="#6B9FFF" stroke-opacity="0.6" stroke-width="40"/>
<path d="M258.929 269.286L62.1429 145" stroke="#6B9FFF" stroke-opacity="0.6" stroke-width="40"/>
<path d="M258.929 269.286L455.714 352.143" stroke="#6B9FFF" stroke-opacity="0.6" stroke-width="40"/>
<path d="M258.929 269.286L62.1429 352.143" stroke="#6B9FFF" stroke-opacity="0.6" stroke-width="40"/>
<path d="M258.929 476.429L62.1429 352.143" stroke="#6B9FFF" stroke-opacity="0.6" stroke-width="40"/>
<circle cx="62.1429" cy="145" r="62.1429" fill="#6B9FFF"/>
<circle cx="62.1429" cy="145" r="52.1429" stroke="white" stroke-opacity="0.4" stroke-width="20"/>
<circle cx="258.929" cy="62.1429" r="62.1429" fill="#6B9FFF"/>
<circle cx="258.929" cy="62.1429" r="52.1429" stroke="white" stroke-opacity="0.4" stroke-width="20"/>
<circle cx="455.714" cy="145" r="62.1429" fill="#A692FF"/>
<circle cx="455.714" cy="145" r="52.1429" stroke="white" stroke-opacity="0.4" stroke-width="20"/>
<circle cx="62.1429" cy="352.143" r="62.1429" fill="#6B9FFF"/>
<circle cx="62.1429" cy="352.143" r="52.1429" stroke="white" stroke-opacity="0.4" stroke-width="20"/>
<circle cx="258.929" cy="269.286" r="62.1429" fill="#6B9FFF"/>
<circle cx="258.929" cy="269.286" r="52.1429" stroke="white" stroke-opacity="0.4" stroke-width="20"/>
<circle cx="258.929" cy="476.429" r="62.1429" fill="#6B9FFF"/>
<circle cx="258.929" cy="476.429" r="52.1429" stroke="white" stroke-opacity="0.4" stroke-width="20"/>
<circle cx="455.714" cy="352.143" r="62.1429" fill="#6B9FFF"/>
<circle cx="455.714" cy="352.143" r="52.1429" stroke="white" stroke-opacity="0.4" stroke-width="20"/>
</svg>
